<mxfile host="65bd71144e">
    <diagram id="2PQGSCLdhIAJmseasrSe" name="Page-1">
        <mxGraphModel dx="2190" dy="577" grid="1" gridSize="10" guides="1" tooltips="1" connect="1" arrows="1" fold="1" page="1" pageScale="1" pageWidth="850" pageHeight="1100" math="0" shadow="0">
            <root>
                <mxCell id="0"/>
                <mxCell id="1" parent="0"/>
                <mxCell id="2" value="Workflow / Task" style="rounded=1;whiteSpace=wrap;html=1;" parent="1" vertex="1">
                    <mxGeometry x="-820" y="20" width="120" height="60" as="geometry"/>
                </mxCell>
                <mxCell id="3" value="Add to DB&lt;div&gt;CREATED&lt;/div&gt;" style="shape=step;perimeter=stepPerimeter;whiteSpace=wrap;html=1;fixedSize=1;rounded=0;" parent="1" vertex="1">
                    <mxGeometry x="-660" y="20" width="130" height="60" as="geometry"/>
                </mxCell>
                <mxCell id="4" value="" style="endArrow=classic;html=1;exitX=1;exitY=0.5;exitDx=0;exitDy=0;entryX=0;entryY=0.5;entryDx=0;entryDy=0;" parent="1" source="2" target="3" edge="1">
                    <mxGeometry width="50" height="50" relative="1" as="geometry">
                        <mxPoint x="60" y="300" as="sourcePoint"/>
                        <mxPoint x="110" y="250" as="targetPoint"/>
                    </mxGeometry>
                </mxCell>
                <mxCell id="5" value="Add to broker&lt;div&gt;(default Redis)&lt;/div&gt;" style="shape=step;perimeter=stepPerimeter;whiteSpace=wrap;html=1;fixedSize=1;" parent="1" vertex="1">
                    <mxGeometry x="-560" y="20" width="130" height="60" as="geometry"/>
                </mxCell>
                <mxCell id="8" value="Celery worker&amp;nbsp;&lt;div&gt;picks it up&lt;/div&gt;&lt;div&gt;RUNNING&lt;/div&gt;" style="shape=step;perimeter=stepPerimeter;whiteSpace=wrap;html=1;fixedSize=1;" parent="1" vertex="1">
                    <mxGeometry x="-450" y="20" width="130" height="60" as="geometry"/>
                </mxCell>
                <mxCell id="10" value="Done&lt;div&gt;COMPLETED&lt;/div&gt;" style="shape=step;perimeter=stepPerimeter;whiteSpace=wrap;html=1;fixedSize=1;" parent="1" vertex="1">
                    <mxGeometry x="-340" y="20" width="130" height="60" as="geometry"/>
                </mxCell>
                <mxCell id="12" value="Task Fails&lt;div&gt;FAILED&lt;/div&gt;" style="shape=step;perimeter=stepPerimeter;whiteSpace=wrap;html=1;fixedSize=1;" parent="1" vertex="1">
                    <mxGeometry x="-340" y="80" width="130" height="60" as="geometry"/>
                </mxCell>
                <mxCell id="14" value="Celery worker shutdown" style="shape=step;perimeter=stepPerimeter;whiteSpace=wrap;html=1;fixedSize=1;" parent="1" vertex="1">
                    <mxGeometry x="-340" y="140" width="130" height="60" as="geometry"/>
                </mxCell>
                <mxCell id="16" value="" style="endArrow=classic;html=1;exitX=0.75;exitY=0;exitDx=0;exitDy=0;entryX=0.432;entryY=1.027;entryDx=0;entryDy=0;entryPerimeter=0;" parent="1" source="18" target="8" edge="1">
                    <mxGeometry width="50" height="50" relative="1" as="geometry">
                        <mxPoint x="-550.0000000000001" y="319.99999999999994" as="sourcePoint"/>
                        <mxPoint x="-549.41" y="365.06" as="targetPoint"/>
                    </mxGeometry>
                </mxCell>
                <mxCell id="18" value="CREATED &amp;amp; RESUMED&lt;div&gt;are states where it needs to be picked up by a worker&lt;/div&gt;&lt;div&gt;and can break when celery shuts down forcefully&lt;/div&gt;" style="rounded=1;whiteSpace=wrap;html=1;" parent="1" vertex="1">
                    <mxGeometry x="-670" y="170" width="180" height="90" as="geometry"/>
                </mxCell>
                <mxCell id="19" value="Task/Workflow&lt;div&gt;hangs on&lt;/div&gt;&lt;div&gt;CREATED&lt;/div&gt;" style="shape=step;perimeter=stepPerimeter;whiteSpace=wrap;html=1;fixedSize=1;" parent="1" vertex="1">
                    <mxGeometry x="-230" y="140" width="130" height="60" as="geometry"/>
                </mxCell>
                <mxCell id="24" value="Resume&lt;div&gt;workflow&lt;br&gt;RESUMED&lt;/div&gt;" style="shape=step;perimeter=stepPerimeter;whiteSpace=wrap;html=1;fixedSize=1;" parent="1" vertex="1">
                    <mxGeometry x="-230" y="80" width="130" height="60" as="geometry"/>
                </mxCell>
                <mxCell id="25" value="Celery worker&amp;nbsp;&lt;div&gt;picks it up&lt;/div&gt;&lt;div&gt;RUNNING&lt;/div&gt;" style="shape=step;perimeter=stepPerimeter;whiteSpace=wrap;html=1;fixedSize=1;" parent="1" vertex="1">
                    <mxGeometry x="-120" y="80" width="130" height="60" as="geometry"/>
                </mxCell>
                <mxCell id="26" value="Celery worker shutdown" style="shape=step;perimeter=stepPerimeter;whiteSpace=wrap;html=1;fixedSize=1;" parent="1" vertex="1">
                    <mxGeometry x="-10" y="140" width="130" height="60" as="geometry"/>
                </mxCell>
                <mxCell id="27" value="Done&lt;div&gt;COMPLETED&lt;/div&gt;" style="shape=step;perimeter=stepPerimeter;whiteSpace=wrap;html=1;fixedSize=1;" parent="1" vertex="1">
                    <mxGeometry x="-10" y="80" width="130" height="60" as="geometry"/>
                </mxCell>
                <mxCell id="30" value="Task/Workflow&lt;div&gt;hangs on&lt;/div&gt;&lt;div&gt;RESUMED&lt;/div&gt;" style="shape=step;perimeter=stepPerimeter;whiteSpace=wrap;html=1;fixedSize=1;" parent="1" vertex="1">
                    <mxGeometry x="100" y="140" width="130" height="60" as="geometry"/>
                </mxCell>
                <mxCell id="34" value="" style="endArrow=classic;html=1;exitX=0.464;exitY=0.944;exitDx=0;exitDy=0;entryX=0.5;entryY=0;entryDx=0;entryDy=0;exitPerimeter=0;" parent="1" source="5" target="18" edge="1">
                    <mxGeometry width="50" height="50" relative="1" as="geometry">
                        <mxPoint x="-670" y="140" as="sourcePoint"/>
                        <mxPoint x="-609" y="97" as="targetPoint"/>
                    </mxGeometry>
                </mxCell>
                <mxCell id="41" value="&lt;span style=&quot;color: rgb(0, 0, 0); text-wrap-mode: nowrap;&quot;&gt;Add hanging processes&lt;/span&gt;&lt;div&gt;&lt;span style=&quot;color: rgb(0, 0, 0); text-wrap-mode: nowrap;&quot;&gt;with a scheduler&lt;/span&gt;&lt;/div&gt;" style="rounded=1;whiteSpace=wrap;html=1;" parent="1" vertex="1">
                    <mxGeometry x="-380" y="270" width="180" height="70" as="geometry"/>
                </mxCell>
                <mxCell id="42" value="" style="endArrow=classic;html=1;entryX=0.835;entryY=-0.054;entryDx=0;entryDy=0;entryPerimeter=0;exitX=0.311;exitY=0.99;exitDx=0;exitDy=0;exitPerimeter=0;" parent="1" source="19" target="41" edge="1">
                    <mxGeometry width="50" height="50" relative="1" as="geometry">
                        <mxPoint x="-180" y="210" as="sourcePoint"/>
                        <mxPoint x="-150" y="170" as="targetPoint"/>
                    </mxGeometry>
                </mxCell>
                <mxCell id="44" style="edgeStyle=none;html=1;exitX=0.25;exitY=0;exitDx=0;exitDy=0;entryX=0.606;entryY=1.03;entryDx=0;entryDy=0;entryPerimeter=0;" parent="1" source="41" target="5" edge="1">
                    <mxGeometry relative="1" as="geometry"/>
                </mxCell>
                <mxCell id="47" style="edgeStyle=none;html=1;exitX=0.394;exitY=1.03;exitDx=0;exitDy=0;entryX=1.001;entryY=0.363;entryDx=0;entryDy=0;entryPerimeter=0;exitPerimeter=0;" parent="1" source="30" target="41" edge="1">
                    <mxGeometry relative="1" as="geometry"/>
                </mxCell>
            </root>
        </mxGraphModel>
    </diagram>
</mxfile>
